<?xml version="1.0" encoding="UTF-8"?>
<!DOCTYPE svg PUBLIC "-//W3C//DTD SVG 1.1//EN" "http://www.w3.org/Graphics/SVG/1.1/DTD/svg11.dtd">
<svg xmlns="http://www.w3.org/2000/svg" version="1.1" width="728px" height="508px" style="shape-rendering:geometricPrecision; text-rendering:geometricPrecision; image-rendering:optimizeQuality; fill-rule:evenodd; clip-rule:evenodd" xmlns:xlink="http://www.w3.org/1999/xlink">
<g><path style="opacity:1" fill="#fefefe" d="M -0.5,-0.5 C 242.167,-0.5 484.833,-0.5 727.5,-0.5C 727.5,168.833 727.5,338.167 727.5,507.5C 484.833,507.5 242.167,507.5 -0.5,507.5C -0.5,338.167 -0.5,168.833 -0.5,-0.5 Z"/></g>
<g><path style="opacity:1" fill="#fcfcfc" d="M 269.5,46.5 C 282.275,50.2748 290.275,58.6081 293.5,71.5C 293.5,74.5 293.5,77.5 293.5,80.5C 288.798,97.6979 277.465,105.865 259.5,105C 254.665,104.226 250.332,102.392 246.5,99.5C 245.5,98.8333 244.5,98.1667 243.5,97.5C 239.443,92.7148 236.443,87.3815 234.5,81.5C 234.004,72.8157 236.004,64.8157 240.5,57.5C 242.5,56.1667 244.167,54.5 245.5,52.5C 252.816,48.0044 260.816,46.0044 269.5,46.5 Z"/></g>
<g><path style="opacity:1" fill="#fcfcfc" d="M 492.5,46.5 C 512.296,53.4224 519.463,67.0891 514,87.5C 505.483,103.231 492.649,108.397 475.5,103C 465.786,98.3728 459.786,90.8728 457.5,80.5C 457.5,77.5 457.5,74.5 457.5,71.5C 458.922,66.6492 460.922,61.9826 463.5,57.5C 465.5,56.1667 467.167,54.5 468.5,52.5C 475.816,48.0044 483.816,46.0044 492.5,46.5 Z"/></g>
<g><path style="opacity:1" fill="#484848" d="M 269.5,46.5 C 260.816,46.0044 252.816,48.0044 245.5,52.5C 248.701,49.0626 252.701,46.8959 257.5,46C 261.689,45.1881 265.689,45.3547 269.5,46.5 Z"/></g>
<g><path style="opacity:1" fill="#484848" d="M 492.5,46.5 C 483.816,46.0044 475.816,48.0044 468.5,52.5C 471.701,49.0626 475.701,46.8959 480.5,46C 484.689,45.1881 488.689,45.3547 492.5,46.5 Z"/></g>
<g><path style="opacity:1" fill="#525252" d="M 245.5,52.5 C 244.167,54.5 242.5,56.1667 240.5,57.5C 241.167,54.8333 242.833,53.1667 245.5,52.5 Z"/></g>
<g><path style="opacity:1" fill="#525252" d="M 468.5,52.5 C 467.167,54.5 465.5,56.1667 463.5,57.5C 464.167,54.8333 465.833,53.1667 468.5,52.5 Z"/></g>
<g><path style="opacity:1" fill="#484848" d="M 240.5,57.5 C 236.004,64.8157 234.004,72.8157 234.5,81.5C 232.593,73.8436 233.76,66.5103 238,59.5C 238.708,58.6195 239.542,57.9528 240.5,57.5 Z"/></g>
<g><path style="opacity:1" fill="#545454" d="M 269.5,46.5 C 283.449,49.1158 291.783,57.4491 294.5,71.5C 294.167,71.5 293.833,71.5 293.5,71.5C 290.275,58.6081 282.275,50.2748 269.5,46.5 Z"/></g>
<g><path style="opacity:1" fill="#575757" d="M 463.5,57.5 C 460.922,61.9826 458.922,66.6492 457.5,71.5C 457.167,71.5 456.833,71.5 456.5,71.5C 457.327,65.9811 459.66,61.3145 463.5,57.5 Z"/></g>
<g><path style="opacity:1" fill="#cccccc" d="M 255.5,70.5 C 256.833,74.1667 256.833,77.8333 255.5,81.5C 254.5,82.8333 253.5,82.8333 252.5,81.5C 251.167,77.8333 251.167,74.1667 252.5,70.5C 253.5,69.1667 254.5,69.1667 255.5,70.5 Z"/></g>
<g><path style="opacity:1" fill="#cccccc" d="M 265.5,70.5 C 266.833,74.1667 266.833,77.8333 265.5,81.5C 264.5,82.8333 263.5,82.8333 262.5,81.5C 261.167,77.8333 261.167,74.1667 262.5,70.5C 263.5,69.1667 264.5,69.1667 265.5,70.5 Z"/></g>
<g><path style="opacity:1" fill="#cccccc" d="M 478.5,70.5 C 479.833,74.1667 479.833,77.8333 478.5,81.5C 477.5,82.8333 476.5,82.8333 475.5,81.5C 474.167,77.8333 474.167,74.1667 475.5,70.5C 476.5,69.1667 477.5,69.1667 478.5,70.5 Z"/></g>
<g><path style="opacity:1" fill="#cccccc" d="M 498.5,70.5 C 499.833,74.1667 499.833,77.8333 498.5,81.5C 497.5,82.8333 496.5,82.8333 495.5,81.5C 494.167,77.8333 494.167,74.1667 495.5,70.5C 496.5,69.1667 497.5,69.1667 498.5,70.5 Z"/></g>
<g><path style="opacity:1" fill="#0f0f0f" d="M 273.5,69.5 C 273.911,73.7938 274.911,77.9605 276.5,82C 274.833,82.6667 273.167,82.6667 271.5,82C 272.72,80.4747 273.387,78.6413 273.5,76.5C 272.992,73.9615 272.992,71.6282 273.5,69.5 Z"/></g>
<g><path style="opacity:1" fill="#060606" d="M 293.5,71.5 C 293.833,71.5 294.167,71.5 294.5,71.5C 294.5,72.8333 294.5,74.1667 294.5,75.5C 346.167,75.5 397.833,75.5 449.5,75.5C 449.343,74.1266 449.51,72.7932 450,71.5C 452,72.8333 454,74.1667 456,75.5C 456.49,74.2068 456.657,72.8734 456.5,71.5C 456.833,71.5 457.167,71.5 457.5,71.5C 457.5,74.5 457.5,77.5 457.5,80.5C 457.167,80.5 456.833,80.5 456.5,80.5C 456.657,79.1266 456.49,77.7932 456,76.5C 454,77.8333 452,79.1667 450,80.5C 449.51,79.2068 449.343,77.8734 449.5,76.5C 397.833,76.5 346.167,76.5 294.5,76.5C 294.5,77.8333 294.5,79.1667 294.5,80.5C 294.167,80.5 293.833,80.5 293.5,80.5C 293.5,77.5 293.5,74.5 293.5,71.5 Z"/></g>
<g><path style="opacity:1" fill="#0f0f0f" d="M 486.5,69.5 C 486.911,73.7938 487.911,77.9605 489.5,82C 487.833,82.6667 486.167,82.6667 484.5,82C 485.72,80.4747 486.387,78.6413 486.5,76.5C 485.992,73.9615 485.992,71.6282 486.5,69.5 Z"/></g>
<g><path style="opacity:1" fill="#282828" d="M 255.5,70.5 C 257.714,71.3915 258.714,73.0582 258.5,75.5C 258.533,78.1016 257.533,80.1016 255.5,81.5C 256.833,77.8333 256.833,74.1667 255.5,70.5 Z"/></g>
<g><path style="opacity:1" fill="#282828" d="M 265.5,70.5 C 267.714,71.3915 268.714,73.0582 268.5,75.5C 268.533,78.1016 267.533,80.1016 265.5,81.5C 266.833,77.8333 266.833,74.1667 265.5,70.5 Z"/></g>
<g><path style="opacity:1" fill="#282828" d="M 478.5,70.5 C 480.714,71.3915 481.714,73.0582 481.5,75.5C 481.533,78.1016 480.533,80.1016 478.5,81.5C 479.833,77.8333 479.833,74.1667 478.5,70.5 Z"/></g>
<g><path style="opacity:1" fill="#282828" d="M 498.5,70.5 C 500.714,71.3915 501.714,73.0582 501.5,75.5C 501.533,78.1016 500.533,80.1016 498.5,81.5C 499.833,77.8333 499.833,74.1667 498.5,70.5 Z"/></g>
<g><path style="opacity:1" fill="#fdfdfd" d="M 456.5,80.5 C 461.581,99.4017 473.915,107.902 493.5,106C 499.085,104.541 504.085,102.041 508.5,98.5C 526.136,117.47 544.136,136.137 562.5,154.5C 562.047,155.458 561.381,156.292 560.5,157C 562.731,158.147 565.065,159.147 567.5,160C 566.748,160.671 566.414,161.504 566.5,162.5C 563.063,165.701 560.896,169.701 560,174.5C 559.188,178.689 559.355,182.689 560.5,186.5C 562.197,198.528 568.864,206.195 580.5,209.5C 580.5,210.833 580.5,212.167 580.5,213.5C 570.406,248.301 560.573,283.301 551,318.5C 550.583,319.756 549.75,320.423 548.5,320.5C 547.761,320.369 547.094,320.536 546.5,321C 547.337,322.011 547.67,323.178 547.5,324.5C 547.5,325.5 547.5,326.5 547.5,327.5C 539.331,326.549 531.665,328.049 524.5,332C 523.619,332.708 522.953,333.542 522.5,334.5C 519.833,335.167 518.167,336.833 517.5,339.5C 514.063,342.701 511.896,346.701 511,351.5C 510.188,355.689 510.355,359.689 511.5,363.5C 511.5,364.5 511.5,365.5 511.5,366.5C 480.822,376.171 450.155,385.837 419.5,395.5C 419.539,394.244 419.039,393.244 418,392.5C 416.483,394.24 414.983,395.906 413.5,397.5C 409.043,386.711 401.043,380.378 389.5,378.5C 381.844,376.593 374.51,377.76 367.5,382C 366.619,382.708 365.953,383.542 365.5,384.5C 362.833,385.167 361.167,386.833 360.5,389.5C 357.55,391.728 355.884,394.728 355.5,398.5C 318.167,388.5 280.833,378.5 243.5,368.5C 243.5,367.5 243.5,366.5 243.5,365.5C 243.631,364.624 243.298,363.957 242.5,363.5C 240.038,365.066 237.538,365.399 235,364.5C 234.536,365.094 234.369,365.761 234.5,366.5C 226.662,384.25 213.328,390.416 194.5,385C 185.071,380.609 179.071,373.442 176.5,363.5C 176.004,354.816 178.004,346.816 182.5,339.5C 184.5,338.167 186.167,336.5 187.5,334.5C 194.219,330.484 201.553,328.317 209.5,328C 206.854,327.503 204.187,327.336 201.5,327.5C 195.914,291.146 190.248,254.813 184.5,218.5C 185.263,217.732 186.263,217.232 187.5,217C 185.959,215.629 184.625,214.129 183.5,212.5C 205.717,203.049 212.217,187.049 203,164.5C 200.92,161.935 199.087,159.268 197.5,156.5C 210.802,141.024 223.969,125.357 237,109.5C 238.129,107.859 239.629,106.859 241.5,106.5C 241.56,107.043 241.893,107.376 242.5,107.5C 243.398,104.732 244.731,102.399 246.5,100.5C 253.494,106.046 261.494,107.879 270.5,106C 283.837,102.497 291.837,93.9969 294.5,80.5C 294.5,79.1667 294.5,77.8333 294.5,76.5C 346.167,76.5 397.833,76.5 449.5,76.5C 449.343,77.8734 449.51,79.2068 450,80.5C 452,79.1667 454,77.8333 456,76.5C 456.49,77.7932 456.657,79.1266 456.5,80.5 Z"/></g>
<g><path style="opacity:1" fill="#282828" d="M 252.5,70.5 C 251.167,74.1667 251.167,77.8333 252.5,81.5C 249.764,79.1421 248.93,76.1421 250,72.5C 250.708,71.6195 251.542,70.9528 252.5,70.5 Z"/></g>
<g><path style="opacity:1" fill="#282828" d="M 262.5,70.5 C 261.167,74.1667 261.167,77.8333 262.5,81.5C 259.764,79.1421 258.93,76.1421 260,72.5C 260.708,71.6195 261.542,70.9528 262.5,70.5 Z"/></g>
<g><path style="opacity:1" fill="#282828" d="M 475.5,70.5 C 474.167,74.1667 474.167,77.8333 475.5,81.5C 472.764,79.1421 471.93,76.1421 473,72.5C 473.708,71.6195 474.542,70.9528 475.5,70.5 Z"/></g>
<g><path style="opacity:1" fill="#282828" d="M 495.5,70.5 C 494.167,74.1667 494.167,77.8333 495.5,81.5C 492.764,79.1421 491.93,76.1421 493,72.5C 493.708,71.6195 494.542,70.9528 495.5,70.5 Z"/></g>
<g><path style="opacity:1" fill="#474747" d="M 345.5,83.5 C 347.337,83.6395 347.67,84.3061 346.5,85.5C 345.702,85.0431 345.369,84.3764 345.5,83.5 Z"/></g>
<g><path style="opacity:1" fill="#696969" d="M 384.5,88.5 C 382.897,88.6882 381.563,88.1882 380.5,87C 382.14,86.6522 383.473,87.1522 384.5,88.5 Z"/></g>
<g><path style="opacity:1" fill="#404040" d="M 345.5,88.5 C 347.162,90.9123 348.162,93.7456 348.5,97C 347.167,97.6667 345.833,97.6667 344.5,97C 345.444,94.2809 345.777,91.4475 345.5,88.5 Z"/></g>
<g><path style="opacity:1" fill="#727272" d="M 384.5,88.5 C 386.308,88.4914 387.975,88.9914 389.5,90C 387.465,90.5986 385.799,90.0986 384.5,88.5 Z"/></g>
<g><path style="opacity:1" fill="#3d3d3d" d="M 408.5,96.5 C 410.299,92.3381 408.965,89.6715 404.5,88.5C 405.539,84.8507 407.872,83.684 411.5,85C 410.051,86.117 408.384,86.7837 406.5,87C 409.064,88.0623 410.731,89.8956 411.5,92.5C 411.439,94.6528 410.439,95.9862 408.5,96.5 Z"/></g>
<g><path style="opacity:1" fill="#3a3a3a" d="M 340.5,85.5 C 341.186,86.8484 342.186,88.015 343.5,89C 342.342,90.0086 341.675,91.3419 341.5,93C 342.009,94.7767 342.009,96.2767 341.5,97.5C 340.914,97.2907 340.414,96.9574 340,96.5C 339.774,93.905 339.274,91.405 338.5,89C 339.823,88.1841 340.489,87.0174 340.5,85.5 Z"/></g>
<g><path style="opacity:1" fill="#3b3b3b" d="M 375.5,88.5 C 377.288,88.2148 378.955,88.5481 380.5,89.5C 379.311,90.4287 377.978,90.762 376.5,90.5C 376.083,93.0792 376.75,95.2458 378.5,97C 376.833,97.6667 375.167,97.6667 373.5,97C 375.321,94.544 375.988,91.7107 375.5,88.5 Z"/></g>
<g><path style="opacity:1" fill="#313131" d="M 350.5,88.5 C 352.162,90.9123 353.162,93.7456 353.5,97C 352.167,97.6667 350.833,97.6667 349.5,97C 350.444,94.2809 350.777,91.4475 350.5,88.5 Z"/></g>
<g><path style="opacity:1" fill="#272727" d="M 354.5,89.5 C 355.189,88.2264 356.023,88.2264 357,89.5C 357.497,91.8098 357.663,94.1432 357.5,96.5C 358.833,96.5 360.167,96.5 361.5,96.5C 361.945,93.6354 361.278,91.1354 359.5,89C 360.5,88.3333 361.5,88.3333 362.5,89C 363.167,91.6667 363.833,94.3333 364.5,97C 361.167,97.6667 357.833,97.6667 354.5,97C 355.624,96.1612 356.291,94.9945 356.5,93.5C 356.66,91.6455 355.993,90.3121 354.5,89.5 Z"/></g>
<g><path style="opacity:1" fill="#9d9d9d" d="M 368.5,88.5 C 369.429,89.3149 370.429,90.1482 371.5,91C 369.527,91.4955 367.527,91.6621 365.5,91.5C 366.167,90.1667 367.167,89.1667 368.5,88.5 Z"/></g>
<g><path style="opacity:1" fill="#545454" d="M 234.5,81.5 C 236.443,87.3815 239.443,92.7148 243.5,97.5C 243.5,97.8333 243.5,98.1667 243.5,98.5C 238.155,94.1461 235.155,88.4794 234.5,81.5 Z"/></g>
<g><path style="opacity:1" fill="#4f4f4f" d="M 293.5,80.5 C 293.833,80.5 294.167,80.5 294.5,80.5C 291.837,93.9969 283.837,102.497 270.5,106C 261.494,107.879 253.494,106.046 246.5,100.5C 246.5,100.167 246.5,99.8333 246.5,99.5C 250.332,102.392 254.665,104.226 259.5,105C 277.465,105.865 288.798,97.6979 293.5,80.5 Z"/></g>
<g><path style="opacity:1" fill="#8e8e8e" d="M 386.5,91.5 C 387.552,91.3505 388.552,91.5172 389.5,92C 387.35,93.5899 385.017,94.2566 382.5,94C 384.066,93.3918 385.4,92.5585 386.5,91.5 Z"/></g>
<g><path style="opacity:1" fill="#282828" d="M 368.5,88.5 C 371.5,88.1667 372.833,89.5 372.5,92.5C 370.833,92.5 369.167,92.5 367.5,92.5C 367.5,93.5 367.5,94.5 367.5,95.5C 369.199,95.3398 370.866,95.5065 372.5,96C 367.802,98.4914 365.469,96.9914 365.5,91.5C 367.527,91.6621 369.527,91.4955 371.5,91C 370.429,90.1482 369.429,89.3149 368.5,88.5 Z"/></g>
<g><path style="opacity:1" fill="#1c1c1c" d="M 408.5,96.5 C 407.292,97.782 405.958,97.782 404.5,96.5C 405.557,96.0941 406.891,96.0941 408.5,96.5 Z"/></g>
<g><path style="opacity:1" fill="#4e4e4e" d="M 492.5,46.5 C 505.62,48.7838 513.787,56.4505 517,69.5C 518.859,80.0703 516.359,89.4037 509.5,97.5C 508.833,97.5 508.5,97.8333 508.5,98.5C 504.085,102.041 499.085,104.541 493.5,106C 473.915,107.902 461.581,99.4017 456.5,80.5C 456.833,80.5 457.167,80.5 457.5,80.5C 459.786,90.8728 465.786,98.3728 475.5,103C 492.649,108.397 505.483,103.231 514,87.5C 519.463,67.0891 512.296,53.4224 492.5,46.5 Z"/></g>
<g><path style="opacity:1" fill="#1a1a1a" d="M 243.5,97.5 C 244.5,98.1667 245.5,98.8333 246.5,99.5C 246.5,99.8333 246.5,100.167 246.5,100.5C 244.731,102.399 243.398,104.732 242.5,107.5C 241.893,107.376 241.56,107.043 241.5,106.5C 240.71,105.599 239.71,104.932 238.5,104.5C 237.571,103.685 236.571,102.852 235.5,102C 238.476,101.295 241.142,100.129 243.5,98.5C 243.5,98.1667 243.5,97.8333 243.5,97.5 Z"/></g>
<g><path style="opacity:1" fill="#828282" d="M 509.5,97.5 C 527.575,116.242 545.908,134.575 564.5,152.5C 564.167,153.5 563.5,154.167 562.5,154.5C 544.136,136.137 526.136,117.47 508.5,98.5C 508.5,97.8333 508.833,97.5 509.5,97.5 Z"/></g>
<g><path style="opacity:1" fill="#777777" d="M 238.5,104.5 C 239.71,104.932 240.71,105.599 241.5,106.5C 239.629,106.859 238.129,107.859 237,109.5C 223.969,125.357 210.802,141.024 197.5,156.5C 197.167,156.5 196.833,156.5 196.5,156.5C 210.903,139.437 224.903,122.104 238.5,104.5 Z"/></g>
<g><path style="opacity:1" fill="#474747" d="M 450.5,135.5 C 452.337,135.639 452.67,136.306 451.5,137.5C 450.702,137.043 450.369,136.376 450.5,135.5 Z"/></g>
<g><path style="opacity:1" fill="#121212" d="M 276.5,136.5 C 276.911,140.794 277.911,144.96 279.5,149C 277.833,149.667 276.167,149.667 274.5,149C 275.72,147.475 276.387,145.641 276.5,143.5C 275.992,140.962 275.992,138.628 276.5,136.5 Z"/></g>
<g><path style="opacity:1" fill="#121212" d="M 517.5,136.5 C 517.911,140.794 518.911,144.96 520.5,149C 518.833,149.667 517.167,149.667 515.5,149C 516.72,147.475 517.387,145.641 517.5,143.5C 516.992,140.962 516.992,138.628 517.5,136.5 Z"/></g>
<g><path style="opacity:1" fill="#696969" d="M 494.5,140.5 C 492.897,140.688 491.563,140.188 490.5,139C 492.14,138.652 493.473,139.152 494.5,140.5 Z"/></g>
<g><path style="opacity:1" fill="#1d1d1d" d="M 529.5,137.5 C 530.117,137.611 530.617,137.944 531,138.5C 531.667,141.5 531.667,144.5 531,147.5C 529.867,149.211 528.367,149.711 526.5,149C 529.442,148.06 530.775,146.06 530.5,143C 530.304,141.122 529.971,139.288 529.5,137.5 Z"/></g>
<g><path style="opacity:1" fill="#353535" d="M 257.5,137.5 C 258.404,138.209 258.737,139.209 258.5,140.5C 275.833,140.833 275.833,141.167 258.5,141.5C 258.676,144.448 258.676,147.114 258.5,149.5C 257.914,149.291 257.414,148.957 257,148.5C 256.667,146.167 256.333,143.833 256,141.5C 254.644,142.38 253.144,142.714 251.5,142.5C 251.083,145.079 251.75,147.246 253.5,149C 251.833,149.667 250.167,149.667 248.5,149C 249.125,146.2 249.792,143.366 250.5,140.5C 251.086,140.709 251.586,141.043 252,141.5C 253.399,140.773 254.899,140.273 256.5,140C 257.252,139.329 257.586,138.496 257.5,137.5 Z"/></g>
<g><path style="opacity:1" fill="#404040" d="M 450.5,140.5 C 452.162,142.912 453.162,145.746 453.5,149C 452.167,149.667 450.833,149.667 449.5,149C 450.444,146.281 450.777,143.448 450.5,140.5 Z"/></g>
<g><path style="opacity:1" fill="#727272" d="M 494.5,140.5 C 496.308,140.491 497.975,140.991 499.5,142C 497.465,142.599 495.799,142.099 494.5,140.5 Z"/></g>
<g><path style="opacity:1" fill="#1d1d1d" d="M 235.5,139.5 C 236.766,140.09 238.099,140.59 239.5,141C 238.552,141.483 237.552,141.649 236.5,141.5C 236.055,144.365 236.722,146.865 238.5,149C 237.551,149.617 236.718,149.451 236,148.5C 235.774,145.905 235.274,143.405 234.5,141C 235.056,140.617 235.389,140.117 235.5,139.5 Z"/></g>
<g><path style="opacity:1" fill="#3a3a3a" d="M 445.5,137.5 C 446.186,138.848 447.186,140.015 448.5,141C 447.342,142.009 446.675,143.342 446.5,145C 447.009,146.777 447.009,148.277 446.5,149.5C 445.914,149.291 445.414,148.957 445,148.5C 444.774,145.905 444.274,143.405 443.5,141C 444.823,140.184 445.489,139.017 445.5,137.5 Z"/></g>
<g><path style="opacity:1" fill="#3b3b3b" d="M 480.5,140.5 C 482.288,140.215 483.955,140.548 485.5,141.5C 484.311,142.429 482.978,142.762 481.5,142.5C 481.083,145.079 481.75,147.246 483.5,149C 481.833,149.667 480.167,149.667 478.5,149C 480.321,146.544 480.988,143.711 480.5,140.5 Z"/></g>
<g><path style="opacity:1" fill="#282828" d="M 525.5,137.5 C 526.043,137.56 526.376,137.893 526.5,138.5C 525.756,141.443 525.256,144.443 525,147.5C 522.872,143.975 523.039,140.642 525.5,137.5 Z"/></g>
<g><path style="opacity:1" fill="#313131" d="M 455.5,140.5 C 457.162,142.912 458.162,145.746 458.5,149C 457.167,149.667 455.833,149.667 454.5,149C 455.444,146.281 455.777,143.448 455.5,140.5 Z"/></g>
<g><path style="opacity:1" fill="#272727" d="M 459.5,141.5 C 460.189,140.226 461.023,140.226 462,141.5C 462.497,143.81 462.663,146.143 462.5,148.5C 463.833,148.5 465.167,148.5 466.5,148.5C 466.945,145.635 466.278,143.135 464.5,141C 465.5,140.333 466.5,140.333 467.5,141C 468.167,143.667 468.833,146.333 469.5,149C 466.167,149.667 462.833,149.667 459.5,149C 460.624,148.161 461.291,146.994 461.5,145.5C 461.66,143.645 460.993,142.312 459.5,141.5 Z"/></g>
<g><path style="opacity:1" fill="#9d9d9d" d="M 473.5,140.5 C 474.429,141.315 475.429,142.148 476.5,143C 474.527,143.495 472.527,143.662 470.5,143.5C 471.167,142.167 472.167,141.167 473.5,140.5 Z"/></g>
<g><path style="opacity:1" fill="#444444" d="M 231.5,148.5 C 230.7,146.318 229.2,144.651 227,143.5C 226.383,142.551 226.549,141.718 227.5,141C 229.259,140.202 230.926,140.369 232.5,141.5C 227.558,141.436 227.392,142.769 232,145.5C 232.74,146.749 232.573,147.749 231.5,148.5 Z"/></g>
<g><path style="opacity:1" fill="#636363" d="M 244.5,143.5 C 245.686,144.961 245.686,146.295 244.5,147.5C 244.631,146.624 244.298,145.957 243.5,145.5C 242.269,146.651 242.269,147.817 243.5,149C 242.552,149.483 241.552,149.649 240.5,149.5C 239.862,146.144 241.196,144.144 244.5,143.5 Z"/></g>
<g><path style="opacity:1" fill="#8e8e8e" d="M 496.5,143.5 C 497.552,143.351 498.552,143.517 499.5,144C 497.35,145.59 495.017,146.257 492.5,146C 494.066,145.392 495.4,144.558 496.5,143.5 Z"/></g>
<g><path style="opacity:1" fill="#222222" d="M 244.5,147.5 C 245.686,146.295 245.686,144.961 244.5,143.5C 243.88,141.023 242.88,141.023 241.5,143.5C 240.339,141.622 241.006,140.622 243.5,140.5C 244.442,140.608 245.275,140.941 246,141.5C 246.226,144.095 246.726,146.595 247.5,149C 246.002,149.585 245.002,149.085 244.5,147.5 Z"/></g>
<g><path style="opacity:1" fill="#282828" d="M 473.5,140.5 C 476.5,140.167 477.833,141.5 477.5,144.5C 475.833,144.5 474.167,144.5 472.5,144.5C 472.5,145.5 472.5,146.5 472.5,147.5C 474.199,147.34 475.866,147.506 477.5,148C 472.802,150.491 470.469,148.991 470.5,143.5C 472.527,143.662 474.527,143.495 476.5,143C 475.429,142.148 474.429,141.315 473.5,140.5 Z"/></g>
<g><path style="opacity:1" fill="#121212" d="M 231.5,148.5 C 230.292,149.782 228.958,149.782 227.5,148.5C 228.557,148.094 229.891,148.094 231.5,148.5 Z"/></g>
<g><path style="opacity:1" fill="#fcfcfc" d="M 182.5,151.5 C 202.296,158.422 209.463,172.089 204,192.5C 198.88,202.795 190.713,208.795 179.5,210.5C 177.167,210.5 174.833,210.5 172.5,210.5C 159.608,207.275 151.275,199.275 147.5,186.5C 147.004,177.816 149.004,169.816 153.5,162.5C 155.5,161.167 157.167,159.5 158.5,157.5C 165.816,153.004 173.816,151.004 182.5,151.5 Z"/></g>
<g><path style="opacity:1" fill="#1d1d1d" d="M 571.5,157.5 C 570.167,159.5 568.5,161.167 566.5,162.5C 566.414,161.504 566.748,160.671 567.5,160C 565.065,159.147 562.731,158.147 560.5,157C 561.381,156.292 562.047,155.458 562.5,154.5C 563.5,154.167 564.167,153.5 564.5,152.5C 565.458,152.047 566.292,151.381 567,150.5C 567.311,152.556 567.811,154.556 568.5,156.5C 569.325,157.386 570.325,157.719 571.5,157.5 Z"/></g>
<g><path style="opacity:1" fill="#fcfcfc" d="M 595.5,151.5 C 614.012,157.536 621.512,170.202 618,189.5C 611.024,206.241 598.524,212.908 580.5,209.5C 570.252,204.92 563.585,197.254 560.5,186.5C 560.004,177.816 562.004,169.816 566.5,162.5C 568.5,161.167 570.167,159.5 571.5,157.5C 578.816,153.004 586.816,151.004 595.5,151.5 Z"/></g>
<g><path style="opacity:1" fill="#484848" d="M 182.5,151.5 C 173.816,151.004 165.816,153.004 158.5,157.5C 161.701,154.063 165.701,151.896 170.5,151C 174.689,150.188 178.689,150.355 182.5,151.5 Z"/></g>
<g><path style="opacity:1" fill="#484848" d="M 595.5,151.5 C 586.816,151.004 578.816,153.004 571.5,157.5C 574.701,154.063 578.701,151.896 583.5,151C 587.689,150.188 591.689,150.355 595.5,151.5 Z"/></g>
<g><path style="opacity:1" fill="#fefefe" d="M 143.5,162.5 C 143.141,164.371 142.141,165.871 140.5,167C 143.146,167.497 145.813,167.664 148.5,167.5C 147.418,171.754 146.751,176.087 146.5,180.5C 146.505,182.696 146.838,184.696 147.5,186.5C 147.466,189.199 148.133,191.699 149.5,194C 148.177,194.816 147.511,195.983 147.5,197.5C 135.176,205.322 124.009,203.989 114,193.5C 106.613,178.448 110.446,167.281 125.5,160C 131.833,158.858 137.833,159.691 143.5,162.5 Z"/></g>
<g><path style="opacity:1" fill="#525252" d="M 158.5,157.5 C 157.167,159.5 155.5,161.167 153.5,162.5C 154.167,159.833 155.833,158.167 158.5,157.5 Z"/></g>
<g><path style="opacity:1" fill="#222222" d="M 153.5,162.5 C 149.004,169.816 147.004,177.816 147.5,186.5C 146.838,184.696 146.505,182.696 146.5,180.5C 146.751,176.087 147.418,171.754 148.5,167.5C 145.813,167.664 143.146,167.497 140.5,167C 142.141,165.871 143.141,164.371 143.5,162.5C 143.5,162.167 143.5,161.833 143.5,161.5C 144.735,161.279 145.735,160.612 146.5,159.5C 147.662,161.824 148.829,164.158 150,166.5C 150.66,164.676 151.827,163.343 153.5,162.5 Z"/></g>
<g><path style="opacity:1" fill="#585858" d="M 143.5,161.5 C 143.5,161.833 143.5,162.167 143.5,162.5C 137.833,159.691 131.833,158.858 125.5,160C 110.446,167.281 106.613,178.448 114,193.5C 124.009,203.989 135.176,205.322 147.5,197.5C 135.247,207.441 123.747,206.441 113,194.5C 105.952,182.185 107.786,171.352 118.5,162C 126.875,156.252 135.208,156.086 143.5,161.5 Z"/></g>
<g><path style="opacity:1" fill="#484848" d="M 566.5,162.5 C 562.004,169.816 560.004,177.816 560.5,186.5C 559.355,182.689 559.188,178.689 560,174.5C 560.896,169.701 563.063,165.701 566.5,162.5 Z"/></g>
<g><path style="opacity:1" fill="#cccccc" d="M 168.5,175.5 C 169.833,179.167 169.833,182.833 168.5,186.5C 167.5,187.833 166.5,187.833 165.5,186.5C 164.167,182.833 164.167,179.167 165.5,175.5C 166.5,174.167 167.5,174.167 168.5,175.5 Z"/></g>
<g><path style="opacity:1" fill="#cccccc" d="M 178.5,175.5 C 179.833,179.167 179.833,182.833 178.5,186.5C 177.5,187.833 176.5,187.833 175.5,186.5C 174.167,182.833 174.167,179.167 175.5,175.5C 176.5,174.167 177.5,174.167 178.5,175.5 Z"/></g>
<g><path style="opacity:1" fill="#cccccc" d="M 188.5,175.5 C 189.833,179.167 189.833,182.833 188.5,186.5C 187.5,187.833 186.5,187.833 185.5,186.5C 184.167,182.833 184.167,179.167 185.5,175.5C 186.5,174.167 187.5,174.167 188.5,175.5 Z"/></g>
<g><path style="opacity:1" fill="#cccccc" d="M 581.5,175.5 C 582.833,179.167 582.833,182.833 581.5,186.5C 580.5,187.833 579.5,187.833 578.5,186.5C 577.167,182.833 577.167,179.167 578.5,175.5C 579.5,174.167 580.5,174.167 581.5,175.5 Z"/></g>
<g><path style="opacity:1" fill="#1d1d1d" d="M 101.5,175.5 C 102.117,175.611 102.617,175.944 103,176.5C 103.667,179.5 103.667,182.5 103,185.5C 101.867,187.211 100.367,187.711 98.5,187C 101.442,186.06 102.775,184.06 102.5,181C 102.304,179.122 101.971,177.288 101.5,175.5 Z"/></g>
<g><path style="opacity:1" fill="#0f0f0f" d="M 589.5,174.5 C 589.911,178.794 590.911,182.96 592.5,187C 590.833,187.667 589.167,187.667 587.5,187C 588.72,185.475 589.387,183.641 589.5,181.5C 588.992,178.962 588.992,176.628 589.5,174.5 Z"/></g>
<g><path style="opacity:1" fill="#3d3d3d" d="M 598.5,174.5 C 600.175,178.295 601.175,182.462 601.5,187C 599.833,187.667 598.167,187.667 596.5,187C 598.389,183.164 599.055,178.997 598.5,174.5 Z"/></g>
<g><path style="opacity:1" fill="#353535" d="M 80.5,175.5 C 81.404,176.209 81.7373,177.209 81.5,178.5C 98.8333,178.833 98.8333,179.167 81.5,179.5C 81.6759,182.448 81.6759,185.114 81.5,187.5C 80.914,187.291 80.414,186.957 80,186.5C 79.6667,184.167 79.3333,181.833 79,179.5C 77.6439,180.38 76.1439,180.714 74.5,180.5C 74.0833,183.079 74.75,185.246 76.5,187C 74.8333,187.667 73.1667,187.667 71.5,187C 72.1253,184.2 72.792,181.366 73.5,178.5C 74.086,178.709 74.586,179.043 75,179.5C 76.3988,178.773 77.8988,178.273 79.5,178C 80.2524,177.329 80.5858,176.496 80.5,175.5 Z"/></g>
<g><path style="opacity:1" fill="#282828" d="M 168.5,175.5 C 170.714,176.392 171.714,178.058 171.5,180.5C 171.533,183.102 170.533,185.102 168.5,186.5C 169.833,182.833 169.833,179.167 168.5,175.5 Z"/></g>
<g><path style="opacity:1" fill="#282828" d="M 178.5,175.5 C 180.714,176.392 181.714,178.058 181.5,180.5C 181.533,183.102 180.533,185.102 178.5,186.5C 179.833,182.833 179.833,179.167 178.5,175.5 Z"/></g>
<g><path style="opacity:1" fill="#282828" d="M 188.5,175.5 C 190.714,176.392 191.714,178.058 191.5,180.5C 191.533,183.102 190.533,185.102 188.5,186.5C 189.833,182.833 189.833,179.167 188.5,175.5 Z"/></g>
<g><path style="opacity:1" fill="#282828" d="M 581.5,175.5 C 583.714,176.392 584.714,178.058 584.5,180.5C 584.533,183.102 583.533,185.102 581.5,186.5C 582.833,182.833 582.833,179.167 581.5,175.5 Z"/></g>
<g><path style="opacity:1" fill="#1d1d1d" d="M 58.5,177.5 C 59.766,178.09 61.0993,178.59 62.5,179C 61.552,179.483 60.552,179.649 59.5,179.5C 59.0548,182.365 59.7215,184.865 61.5,187C 60.5509,187.617 59.7175,187.451 59,186.5C 58.7744,183.905 58.2744,181.405 57.5,179C 58.056,178.617 58.3893,178.117 58.5,177.5 Z"/></g>
<g><path style="opacity:1" fill="#282828" d="M 97.5,175.5 C 98.0431,175.56 98.3764,175.893 98.5,176.5C 97.7565,179.443 97.2565,182.443 97,185.5C 94.8723,181.975 95.0389,178.642 97.5,175.5 Z"/></g>
<g><path style="opacity:1" fill="#444444" d="M 54.5,186.5 C 53.7003,184.318 52.2003,182.651 50,181.5C 49.3828,180.551 49.5494,179.718 50.5,179C 52.2588,178.202 53.9255,178.369 55.5,179.5C 50.5584,179.436 50.3918,180.769 55,183.5C 55.7401,184.749 55.5735,185.749 54.5,186.5 Z"/></g>
<g><path style="opacity:1" fill="#636363" d="M 67.5,181.5 C 68.6857,182.961 68.6857,184.295 67.5,185.5C 67.6309,184.624 67.2975,183.957 66.5,183.5C 65.269,184.651 65.269,185.817 66.5,187C 65.552,187.483 64.552,187.649 63.5,187.5C 62.8622,184.144 64.1956,182.144 67.5,181.5 Z"/></g>
<g><path style="opacity:1" fill="#282828" d="M 165.5,175.5 C 164.167,179.167 164.167,182.833 165.5,186.5C 162.764,184.142 161.93,181.142 163,177.5C 163.708,176.619 164.542,175.953 165.5,175.5 Z"/></g>
<g><path style="opacity:1" fill="#282828" d="M 175.5,175.5 C 174.167,179.167 174.167,182.833 175.5,186.5C 172.764,184.142 171.93,181.142 173,177.5C 173.708,176.619 174.542,175.953 175.5,175.5 Z"/></g>
<g><path style="opacity:1" fill="#282828" d="M 185.5,175.5 C 184.167,179.167 184.167,182.833 185.5,186.5C 182.764,184.142 181.93,181.142 183,177.5C 183.708,176.619 184.542,175.953 185.5,175.5 Z"/></g>
<g><path style="opacity:1" fill="#282828" d="M 578.5,175.5 C 577.167,179.167 577.167,182.833 578.5,186.5C 575.764,184.142 574.93,181.142 576,177.5C 576.708,176.619 577.542,175.953 578.5,175.5 Z"/></g>
<g><path style="opacity:1" fill="#222222" d="M 67.5,185.5 C 68.6857,184.295 68.6857,182.961 67.5,181.5C 66.88,179.023 65.88,179.023 64.5,181.5C 63.339,179.622 64.0056,178.622 66.5,178.5C 67.4419,178.608 68.2753,178.941 69,179.5C 69.2256,182.095 69.7256,184.595 70.5,187C 69.0024,187.585 68.0024,187.085 67.5,185.5 Z"/></g>
<g><path style="opacity:1" fill="#121212" d="M 54.5,186.5 C 53.2918,187.782 51.9584,187.782 50.5,186.5C 51.5575,186.094 52.8908,186.094 54.5,186.5 Z"/></g>
<g><path style="opacity:1" fill="#535353" d="M 147.5,186.5 C 151.275,199.275 159.608,207.275 172.5,210.5C 172.5,210.833 172.5,211.167 172.5,211.5C 162.613,209.477 155.113,204.144 150,195.5C 149.292,196.381 148.458,197.047 147.5,197.5C 147.511,195.983 148.177,194.816 149.5,194C 148.133,191.699 147.466,189.199 147.5,186.5 Z"/></g>
<g><path style="opacity:1" fill="#535353" d="M 560.5,186.5 C 563.585,197.254 570.252,204.92 580.5,209.5C 568.864,206.195 562.197,198.528 560.5,186.5 Z"/></g>
<g><path style="opacity:1" fill="#565656" d="M 182.5,151.5 C 187.6,152.055 192.267,153.721 196.5,156.5C 196.833,156.5 197.167,156.5 197.5,156.5C 199.087,159.268 200.92,161.935 203,164.5C 212.217,187.049 205.717,203.049 183.5,212.5C 182.533,211.194 181.199,210.527 179.5,210.5C 190.713,208.795 198.88,202.795 204,192.5C 209.463,172.089 202.296,158.422 182.5,151.5 Z"/></g>
<g><path style="opacity:1" fill="#535353" d="M 595.5,151.5 C 608.62,153.784 616.787,161.451 620,174.5C 622.248,193.237 614.415,205.404 596.5,211C 591.913,211.799 587.413,211.632 583,210.5C 582.209,211.745 581.709,213.078 581.5,214.5C 580.833,214.5 580.5,214.167 580.5,213.5C 580.5,212.167 580.5,210.833 580.5,209.5C 598.524,212.908 611.024,206.241 618,189.5C 621.512,170.202 614.012,157.536 595.5,151.5 Z"/></g>
<g><path style="opacity:1" fill="#0f0f0f" d="M 172.5,211.5 C 172.5,211.167 172.5,210.833 172.5,210.5C 174.833,210.5 177.167,210.5 179.5,210.5C 181.199,210.527 182.533,211.194 183.5,212.5C 184.625,214.129 185.959,215.629 187.5,217C 186.263,217.232 185.263,217.732 184.5,218.5C 183.833,218.5 183.167,218.5 182.5,218.5C 181.5,218.5 180.5,218.5 179.5,218.5C 179.317,216.064 179.984,213.897 181.5,212C 178.518,211.502 175.518,211.335 172.5,211.5 Z"/></g>
<g><path style="opacity:1" fill="#797979" d="M 580.5,213.5 C 580.5,214.167 580.833,214.5 581.5,214.5C 571.629,250.112 561.963,285.778 552.5,321.5C 550.901,321.768 549.568,321.434 548.5,320.5C 549.75,320.423 550.583,319.756 551,318.5C 560.573,283.301 570.406,248.301 580.5,213.5 Z"/></g>
<g><path style="opacity:1" fill="#474747" d="M 490.5,256.5 C 492.337,256.639 492.67,257.306 491.5,258.5C 490.702,258.043 490.369,257.376 490.5,256.5 Z"/></g>
<g><path style="opacity:1" fill="#696969" d="M 529.5,261.5 C 527.897,261.688 526.563,261.188 525.5,260C 527.14,259.652 528.473,260.152 529.5,261.5 Z"/></g>
<g><path style="opacity:1" fill="#404040" d="M 490.5,261.5 C 492.162,263.912 493.162,266.746 493.5,270C 492.167,270.667 490.833,270.667 489.5,270C 490.444,267.281 490.777,264.448 490.5,261.5 Z"/></g>
<g><path style="opacity:1" fill="#727272" d="M 529.5,261.5 C 531.308,261.491 532.975,261.991 534.5,263C 532.465,263.599 530.799,263.099 529.5,261.5 Z"/></g>
<g><path style="opacity:1" fill="#3d3d3d" d="M 553.5,269.5 C 555.299,265.338 553.965,262.671 549.5,261.5C 550.539,257.851 552.872,256.684 556.5,258C 555.051,259.117 553.384,259.784 551.5,260C 554.064,261.062 555.731,262.896 556.5,265.5C 556.439,267.653 555.439,268.986 553.5,269.5 Z"/></g>
<g><path style="opacity:1" fill="#3a3a3a" d="M 485.5,258.5 C 486.186,259.848 487.186,261.015 488.5,262C 487.342,263.009 486.675,264.342 486.5,266C 487.009,267.777 487.009,269.277 486.5,270.5C 485.914,270.291 485.414,269.957 485,269.5C 484.774,266.905 484.274,264.405 483.5,262C 484.823,261.184 485.489,260.017 485.5,258.5 Z"/></g>
<g><path style="opacity:1" fill="#3b3b3b" d="M 520.5,261.5 C 522.288,261.215 523.955,261.548 525.5,262.5C 524.311,263.429 522.978,263.762 521.5,263.5C 521.083,266.079 521.75,268.246 523.5,270C 521.833,270.667 520.167,270.667 518.5,270C 520.321,267.544 520.988,264.711 520.5,261.5 Z"/></g>
<g><path style="opacity:1" fill="#0f0f0f" d="M 203.5,260.5 C 203.911,264.794 204.911,268.96 206.5,273C 204.833,273.667 203.167,273.667 201.5,273C 202.72,271.475 203.387,269.641 203.5,267.5C 202.992,264.962 202.992,262.628 203.5,260.5 Z"/></g>
<g><path style="opacity:1" fill="#313131" d="M 495.5,261.5 C 497.162,263.912 498.162,266.746 498.5,270C 497.167,270.667 495.833,270.667 494.5,270C 495.444,267.281 495.777,264.448 495.5,261.5 Z"/></g>
<g><path style="opacity:1" fill="#272727" d="M 499.5,262.5 C 500.189,261.226 501.023,261.226 502,262.5C 502.497,264.81 502.663,267.143 502.5,269.5C 503.833,269.5 505.167,269.5 506.5,269.5C 506.945,266.635 506.278,264.135 504.5,262C 505.5,261.333 506.5,261.333 507.5,262C 508.167,264.667 508.833,267.333 509.5,270C 506.167,270.667 502.833,270.667 499.5,270C 500.624,269.161 501.291,267.994 501.5,266.5C 501.66,264.645 500.993,263.312 499.5,262.5 Z"/></g>
<g><path style="opacity:1" fill="#9d9d9d" d="M 513.5,261.5 C 514.429,262.315 515.429,263.148 516.5,264C 514.527,264.495 512.527,264.662 510.5,264.5C 511.167,263.167 512.167,262.167 513.5,261.5 Z"/></g>
<g><path style="opacity:1" fill="#8e8e8e" d="M 531.5,264.5 C 532.552,264.351 533.552,264.517 534.5,265C 532.35,266.59 530.017,267.257 527.5,267C 529.066,266.392 530.4,265.558 531.5,264.5 Z"/></g>
<g><path style="opacity:1" fill="#282828" d="M 513.5,261.5 C 516.5,261.167 517.833,262.5 517.5,265.5C 515.833,265.5 514.167,265.5 512.5,265.5C 512.5,266.5 512.5,267.5 512.5,268.5C 514.199,268.34 515.866,268.506 517.5,269C 512.802,271.491 510.469,269.991 510.5,264.5C 512.527,264.662 514.527,264.495 516.5,264C 515.429,263.148 514.429,262.315 513.5,261.5 Z"/></g>
<g><path style="opacity:1" fill="#1c1c1c" d="M 553.5,269.5 C 552.292,270.782 550.958,270.782 549.5,269.5C 550.557,269.094 551.891,269.094 553.5,269.5 Z"/></g>
<g><path style="opacity:1" fill="#696969" d="M 182.5,218.5 C 183.167,218.5 183.833,218.5 184.5,218.5C 190.248,254.813 195.914,291.146 201.5,327.5C 204.187,327.336 206.854,327.503 209.5,328C 201.553,328.317 194.219,330.484 187.5,334.5C 187.953,333.542 188.619,332.708 189.5,332C 193.407,330.434 197.074,328.601 200.5,326.5C 193.852,290.609 187.852,254.609 182.5,218.5 Z"/></g>
<g><path style="opacity:1" fill="#0c0c0c" d="M 548.5,320.5 C 549.568,321.434 550.901,321.768 552.5,321.5C 553.263,322.268 554.263,322.768 555.5,323C 553.963,324.707 552.296,326.207 550.5,327.5C 549.662,327.842 549.328,328.508 549.5,329.5C 548.833,329.5 548.167,329.5 547.5,329.5C 548.72,327.716 548.72,326.05 547.5,324.5C 547.67,323.178 547.337,322.011 546.5,321C 547.094,320.536 547.761,320.369 548.5,320.5 Z"/></g>
<g><path style="opacity:1" fill="#fcfcfc" d="M 547.5,329.5 C 548.167,329.5 548.833,329.5 549.5,329.5C 567.245,337.33 573.412,350.663 568,369.5C 559.483,385.231 546.649,390.397 529.5,385C 520.071,380.609 514.071,373.442 511.5,363.5C 511.004,354.816 513.004,346.816 517.5,339.5C 519.5,338.167 521.167,336.5 522.5,334.5C 530.169,329.499 538.502,327.833 547.5,329.5 Z"/></g>
<g><path style="opacity:1" fill="#535353" d="M 547.5,324.5 C 548.72,326.05 548.72,327.716 547.5,329.5C 538.502,327.833 530.169,329.499 522.5,334.5C 522.953,333.542 523.619,332.708 524.5,332C 531.665,328.049 539.331,326.549 547.5,327.5C 547.5,326.5 547.5,325.5 547.5,324.5 Z"/></g>
<g><path style="opacity:1" fill="#525252" d="M 187.5,334.5 C 186.167,336.5 184.5,338.167 182.5,339.5C 183.167,336.833 184.833,335.167 187.5,334.5 Z"/></g>
<g><path style="opacity:1" fill="#525252" d="M 522.5,334.5 C 521.167,336.5 519.5,338.167 517.5,339.5C 518.167,336.833 519.833,335.167 522.5,334.5 Z"/></g>
<g><path style="opacity:1" fill="#484848" d="M 182.5,339.5 C 178.004,346.816 176.004,354.816 176.5,363.5C 174.593,355.844 175.76,348.51 180,341.5C 180.708,340.619 181.542,339.953 182.5,339.5 Z"/></g>
<g><path style="opacity:1" fill="#4a4a4a" d="M 211.5,329.5 C 224.573,330.711 232.74,338.044 236,351.5C 236.667,354.833 236.667,358.167 236,361.5C 235.731,344.572 227.564,333.906 211.5,329.5 Z"/></g>
<g><path style="opacity:1" fill="#484848" d="M 517.5,339.5 C 513.004,346.816 511.004,354.816 511.5,363.5C 510.355,359.689 510.188,355.689 511,351.5C 511.896,346.701 514.063,342.701 517.5,339.5 Z"/></g>
<g><path style="opacity:1" fill="#cccccc" d="M 542.5,352.5 C 543.833,356.167 543.833,359.833 542.5,363.5C 541.5,364.833 540.5,364.833 539.5,363.5C 538.167,359.833 538.167,356.167 539.5,352.5C 540.5,351.167 541.5,351.167 542.5,352.5 Z"/></g>
<g><path style="opacity:1" fill="#cccccc" d="M 552.5,352.5 C 553.833,356.167 553.833,359.833 552.5,363.5C 551.5,364.833 550.5,364.833 549.5,363.5C 548.167,359.833 548.167,356.167 549.5,352.5C 550.5,351.167 551.5,351.167 552.5,352.5 Z"/></g>
<g><path style="opacity:1" fill="#0f0f0f" d="M 195.5,351.5 C 195.911,355.794 196.911,359.96 198.5,364C 196.833,364.667 195.167,364.667 193.5,364C 194.72,362.475 195.387,360.641 195.5,358.5C 194.992,355.962 194.992,353.628 195.5,351.5 Z"/></g>
<g><path style="opacity:1" fill="#3d3d3d" d="M 204.5,351.5 C 206.175,355.295 207.175,359.462 207.5,364C 205.833,364.667 204.167,364.667 202.5,364C 204.389,360.164 205.055,355.997 204.5,351.5 Z"/></g>
<g><path style="opacity:1" fill="#0f0f0f" d="M 530.5,351.5 C 530.911,355.794 531.911,359.96 533.5,364C 531.833,364.667 530.167,364.667 528.5,364C 529.72,362.475 530.387,360.641 530.5,358.5C 529.992,355.962 529.992,353.628 530.5,351.5 Z"/></g>
<g><path style="opacity:1" fill="#282828" d="M 542.5,352.5 C 544.714,353.392 545.714,355.058 545.5,357.5C 545.533,360.102 544.533,362.102 542.5,363.5C 543.833,359.833 543.833,356.167 542.5,352.5 Z"/></g>
<g><path style="opacity:1" fill="#282828" d="M 552.5,352.5 C 554.714,353.392 555.714,355.058 555.5,357.5C 555.533,360.102 554.533,362.102 552.5,363.5C 553.833,359.833 553.833,356.167 552.5,352.5 Z"/></g>
<g><path style="opacity:1" fill="#474747" d="M 298.5,358.5 C 300.337,358.639 300.67,359.306 299.5,360.5C 298.702,360.043 298.369,359.376 298.5,358.5 Z"/></g>
<g><path style="opacity:1" fill="#474747" d="M 395.5,358.5 C 397.337,358.639 397.67,359.306 396.5,360.5C 395.702,360.043 395.369,359.376 395.5,358.5 Z"/></g>
<g><path style="opacity:1" fill="#0d0d0d" d="M 461.5,361.5 C 459.389,360.258 457.389,360.258 455.5,361.5C 454.957,361.44 454.624,361.107 454.5,360.5C 455.667,360.167 456.833,359.833 458,359.5C 459.681,359.608 460.848,360.275 461.5,361.5 Z"/></g>
<g><path style="opacity:1" fill="#282828" d="M 539.5,352.5 C 538.167,356.167 538.167,359.833 539.5,363.5C 536.764,361.142 535.93,358.142 537,354.5C 537.708,353.619 538.542,352.953 539.5,352.5 Z"/></g>
<g><path style="opacity:1" fill="#282828" d="M 549.5,352.5 C 548.167,356.167 548.167,359.833 549.5,363.5C 546.764,361.142 545.93,358.142 547,354.5C 547.708,353.619 548.542,352.953 549.5,352.5 Z"/></g>
<g><path style="opacity:1" fill="#e6e6e6" d="M 362.5,360.5 C 362.5,361.833 362.5,363.167 362.5,364.5C 360.654,364.778 359.32,364.111 358.5,362.5C 359.32,360.889 360.654,360.222 362.5,360.5 Z"/></g>
<g><path style="opacity:1" fill="#5f5f5f" d="M 455.5,361.5 C 457.389,360.258 459.389,360.258 461.5,361.5C 460.292,365.292 458.792,368.959 457,372.5C 457.696,368.886 458.53,365.219 459.5,361.5C 458.167,361.5 456.833,361.5 455.5,361.5 Z"/></g>
<g><path style="opacity:1" fill="#616161" d="M 362.5,360.5 C 365.022,361.665 365.022,362.998 362.5,364.5C 362.5,363.167 362.5,361.833 362.5,360.5 Z"/></g>
<g><path style="opacity:1" fill="#696969" d="M 337.5,363.5 C 335.897,363.688 334.563,363.188 333.5,362C 335.14,361.652 336.473,362.152 337.5,363.5 Z"/></g>
<g><path style="opacity:1" fill="#696969" d="M 434.5,363.5 C 432.897,363.688 431.563,363.188 430.5,362C 432.14,361.652 433.473,362.152 434.5,363.5 Z"/></g>
<g><path style="opacity:1" fill="#3e3e3e" d="M 216.5,352.5 C 218.884,353.425 219.884,355.258 219.5,358C 219.541,364.334 217.041,365.834 212,362.5C 211.333,359.5 211.333,356.5 212,353.5C 213.347,351.534 214.847,351.201 216.5,352.5 Z"/></g>
<g><path style="opacity:1" fill="#f4f4f4" d="M 216.5,352.5 C 217.58,355.743 217.747,359.076 217,362.5C 216,363.833 215,363.833 214,362.5C 213.333,359.5 213.333,356.5 214,353.5C 214.671,352.748 215.504,352.414 216.5,352.5 Z"/></g>
<g><path style="opacity:1" fill="#404040" d="M 298.5,363.5 C 300.162,365.912 301.162,368.746 301.5,372C 300.167,372.667 298.833,372.667 297.5,372C 298.444,369.281 298.777,366.448 298.5,363.5 Z"/></g>
<g><path style="opacity:1" fill="#727272" d="M 337.5,363.5 C 339.308,363.491 340.975,363.991 342.5,365C 340.465,365.599 338.799,365.099 337.5,363.5 Z"/></g>
<g><path style="opacity:1" fill="#404040" d="M 395.5,363.5 C 397.162,365.912 398.162,368.746 398.5,372C 397.167,372.667 395.833,372.667 394.5,372C 395.444,369.281 395.777,366.448 395.5,363.5 Z"/></g>
<g><path style="opacity:1" fill="#727272" d="M 434.5,363.5 C 436.308,363.491 437.975,363.991 439.5,365C 437.465,365.599 435.799,365.099 434.5,363.5 Z"/></g>
<g><path style="opacity:1" fill="#111111" d="M 243.5,365.5 C 242.566,366.568 242.232,367.901 242.5,369.5C 241.732,370.263 241.232,371.263 241,372.5C 239.296,370.627 237.463,368.96 235.5,367.5C 235.5,366.833 235.167,366.5 234.5,366.5C 234.369,365.761 234.536,365.094 235,364.5C 237.538,365.399 240.038,365.066 242.5,363.5C 243.298,363.957 243.631,364.624 243.5,365.5 Z"/></g>
<g><path style="opacity:1" fill="#3a3a3a" d="M 293.5,360.5 C 294.186,361.848 295.186,363.015 296.5,364C 295.342,365.009 294.675,366.342 294.5,368C 295.009,369.777 295.009,371.277 294.5,372.5C 293.914,372.291 293.414,371.957 293,371.5C 292.774,368.905 292.274,366.405 291.5,364C 292.823,363.184 293.489,362.017 293.5,360.5 Z"/></g>
<g><path style="opacity:1" fill="#3b3b3b" d="M 328.5,363.5 C 330.288,363.215 331.955,363.548 333.5,364.5C 332.311,365.429 330.978,365.762 329.5,365.5C 329.083,368.079 329.75,370.246 331.5,372C 329.833,372.667 328.167,372.667 326.5,372C 328.321,369.544 328.988,366.711 328.5,363.5 Z"/></g>
<g><path style="opacity:1" fill="#3a3a3a" d="M 390.5,360.5 C 391.186,361.848 392.186,363.015 393.5,364C 392.342,365.009 391.675,366.342 391.5,368C 392.009,369.777 392.009,371.277 391.5,372.5C 390.914,372.291 390.414,371.957 390,371.5C 389.774,368.905 389.274,366.405 388.5,364C 389.823,363.184 390.489,362.017 390.5,360.5 Z"/></g>
<g><path style="opacity:1" fill="#3b3b3b" d="M 425.5,363.5 C 427.288,363.215 428.955,363.548 430.5,364.5C 429.311,365.429 427.978,365.762 426.5,365.5C 426.083,368.079 426.75,370.246 428.5,372C 426.833,372.667 425.167,372.667 423.5,372C 425.321,369.544 425.988,366.711 425.5,363.5 Z"/></g>
<g><path style="opacity:1" fill="#313131" d="M 303.5,363.5 C 305.162,365.912 306.162,368.746 306.5,372C 305.167,372.667 303.833,372.667 302.5,372C 303.444,369.281 303.777,366.448 303.5,363.5 Z"/></g>
<g><path style="opacity:1" fill="#272727" d="M 307.5,364.5 C 308.189,363.226 309.023,363.226 310,364.5C 310.497,366.81 310.663,369.143 310.5,371.5C 311.833,371.5 313.167,371.5 314.5,371.5C 314.945,368.635 314.278,366.135 312.5,364C 313.5,363.333 314.5,363.333 315.5,364C 316.167,366.667 316.833,369.333 317.5,372C 314.167,372.667 310.833,372.667 307.5,372C 308.624,371.161 309.291,369.994 309.5,368.5C 309.66,366.645 308.993,365.312 307.5,364.5 Z"/></g>
<g><path style="opacity:1" fill="#9d9d9d" d="M 321.5,363.5 C 322.429,364.315 323.429,365.148 324.5,366C 322.527,366.495 320.527,366.662 318.5,366.5C 319.167,365.167 320.167,364.167 321.5,363.5 Z"/></g>
<g><path style="opacity:1" fill="#313131" d="M 400.5,363.5 C 402.162,365.912 403.162,368.746 403.5,372C 402.167,372.667 400.833,372.667 399.5,372C 400.444,369.281 400.777,366.448 400.5,363.5 Z"/></g>
<g><path style="opacity:1" fill="#272727" d="M 404.5,364.5 C 405.189,363.226 406.023,363.226 407,364.5C 407.497,366.81 407.663,369.143 407.5,371.5C 408.833,371.5 410.167,371.5 411.5,371.5C 411.945,368.635 411.278,366.135 409.5,364C 410.5,363.333 411.5,363.333 412.5,364C 413.167,366.667 413.833,369.333 414.5,372C 411.167,372.667 407.833,372.667 404.5,372C 405.624,371.161 406.291,369.994 406.5,368.5C 406.66,366.645 405.993,365.312 404.5,364.5 Z"/></g>
<g><path style="opacity:1" fill="#9d9d9d" d="M 418.5,363.5 C 419.429,364.315 420.429,365.148 421.5,366C 419.527,366.495 417.527,366.662 415.5,366.5C 416.167,365.167 417.167,364.167 418.5,363.5 Z"/></g>
<g><path style="opacity:1" fill="#262626" d="M 362.5,360.5 C 360.654,360.222 359.32,360.889 358.5,362.5C 359.32,364.111 360.654,364.778 362.5,364.5C 364.1,366.571 364.6,368.905 364,371.5C 359.377,373.678 357.377,372.344 358,367.5C 358.271,371.13 359.938,372.13 363,370.5C 363.667,369.833 363.667,369.167 363,368.5C 360.295,367.245 358.462,365.245 357.5,362.5C 357.608,361.558 357.941,360.725 358.5,360C 360.066,359.235 361.399,359.402 362.5,360.5 Z"/></g>
<g><path style="opacity:1" fill="#8e8e8e" d="M 339.5,366.5 C 340.552,366.351 341.552,366.517 342.5,367C 340.35,368.59 338.017,369.257 335.5,369C 337.066,368.392 338.4,367.558 339.5,366.5 Z"/></g>
<g><path style="opacity:1" fill="#8e8e8e" d="M 436.5,366.5 C 437.552,366.351 438.552,366.517 439.5,367C 437.35,368.59 435.017,369.257 432.5,369C 434.066,368.392 435.4,367.558 436.5,366.5 Z"/></g>
<g><path style="opacity:1" fill="#282828" d="M 321.5,363.5 C 324.5,363.167 325.833,364.5 325.5,367.5C 323.833,367.5 322.167,367.5 320.5,367.5C 320.5,368.5 320.5,369.5 320.5,370.5C 322.199,370.34 323.866,370.506 325.5,371C 320.802,373.491 318.469,371.991 318.5,366.5C 320.527,366.662 322.527,366.495 324.5,366C 323.429,365.148 322.429,364.315 321.5,363.5 Z"/></g>
<g><path style="opacity:1" fill="#282828" d="M 418.5,363.5 C 421.5,363.167 422.833,364.5 422.5,367.5C 420.833,367.5 419.167,367.5 417.5,367.5C 417.5,368.5 417.5,369.5 417.5,370.5C 419.199,370.34 420.866,370.506 422.5,371C 417.802,373.491 415.469,371.991 415.5,366.5C 417.527,366.662 419.527,366.495 421.5,366C 420.429,365.148 419.429,364.315 418.5,363.5 Z"/></g>
<g><path style="opacity:1" fill="#737373" d="M 511.5,366.5 C 511.833,367.167 512.167,367.833 512.5,368.5C 481.904,378.032 451.238,387.365 420.5,396.5C 419.833,396.5 419.5,396.167 419.5,395.5C 450.155,385.837 480.822,376.171 511.5,366.5 Z"/></g>
<g><path style="opacity:1" fill="#707070" d="M 243.5,365.5 C 243.5,366.5 243.5,367.5 243.5,368.5C 280.833,378.5 318.167,388.5 355.5,398.5C 355.884,394.728 357.55,391.728 360.5,389.5C 356.004,396.816 354.004,404.816 354.5,413.5C 353.594,408.982 353.261,404.482 353.5,400C 316.442,389.923 279.442,379.757 242.5,369.5C 242.232,367.901 242.566,366.568 243.5,365.5 Z"/></g>
<g><path style="opacity:1" fill="#484848" d="M 389.5,378.5 C 380.816,378.004 372.816,380.004 365.5,384.5C 365.953,383.542 366.619,382.708 367.5,382C 374.51,377.76 381.844,376.593 389.5,378.5 Z"/></g>
<g><path style="opacity:1" fill="#525252" d="M 389.5,378.5 C 401.043,380.378 409.043,386.711 413.5,397.5C 413.5,398.167 413.167,398.5 412.5,398.5C 407.92,388.252 400.254,381.585 389.5,378.5 Z"/></g>
<g><path style="opacity:1" fill="#535353" d="M 550.5,327.5 C 566.13,334.746 572.964,347.08 571,364.5C 565.42,382.393 553.254,390.226 534.5,388C 523.531,385.528 516.198,379.028 512.5,368.5C 512.167,367.833 511.833,367.167 511.5,366.5C 511.5,365.5 511.5,364.5 511.5,363.5C 514.071,373.442 520.071,380.609 529.5,385C 546.649,390.397 559.483,385.231 568,369.5C 573.412,350.663 567.245,337.33 549.5,329.5C 549.328,328.508 549.662,327.842 550.5,327.5 Z"/></g>
<g><path style="opacity:1" fill="#4f4f4f" d="M 176.5,363.5 C 179.071,373.442 185.071,380.609 194.5,385C 213.328,390.416 226.662,384.25 234.5,366.5C 235.167,366.5 235.5,366.833 235.5,367.5C 227.697,384.9 214.364,391.4 195.5,387C 184.513,382.854 178.18,375.021 176.5,363.5 Z"/></g>
<g><path style="opacity:1" fill="#525252" d="M 365.5,384.5 C 364.167,386.5 362.5,388.167 360.5,389.5C 361.167,386.833 362.833,385.167 365.5,384.5 Z"/></g>
<g><path style="opacity:1" fill="#121212" d="M 419.5,395.5 C 419.5,396.167 419.833,396.5 420.5,396.5C 420.33,397.822 420.663,398.989 421.5,400C 419.287,400.626 417.12,400.459 415,399.5C 413.108,402.39 412.275,402.056 412.5,398.5C 413.167,398.5 413.5,398.167 413.5,397.5C 414.983,395.906 416.483,394.24 418,392.5C 419.039,393.244 419.539,394.244 419.5,395.5 Z"/></g>
<g><path style="opacity:1" fill="#cccccc" d="M 385.5,402.5 C 386.833,406.167 386.833,409.833 385.5,413.5C 384.5,414.833 383.5,414.833 382.5,413.5C 381.167,409.833 381.167,406.167 382.5,402.5C 383.5,401.167 384.5,401.167 385.5,402.5 Z"/></g>
<g><path style="opacity:1" fill="#0f0f0f" d="M 373.5,401.5 C 373.911,405.794 374.911,409.96 376.5,414C 374.833,414.667 373.167,414.667 371.5,414C 372.72,412.475 373.387,410.641 373.5,408.5C 372.992,405.962 372.992,403.628 373.5,401.5 Z"/></g>
<g><path style="opacity:1" fill="#0f0f0f" d="M 393.5,401.5 C 393.911,405.794 394.911,409.96 396.5,414C 394.833,414.667 393.167,414.667 391.5,414C 392.72,412.475 393.387,410.641 393.5,408.5C 392.992,405.962 392.992,403.628 393.5,401.5 Z"/></g>
<g><path style="opacity:1" fill="#282828" d="M 385.5,402.5 C 387.714,403.392 388.714,405.058 388.5,407.5C 388.533,410.102 387.533,412.102 385.5,413.5C 386.833,409.833 386.833,406.167 385.5,402.5 Z"/></g>
<g><path style="opacity:1" fill="#282828" d="M 382.5,402.5 C 381.167,406.167 381.167,409.833 382.5,413.5C 379.764,411.142 378.93,408.142 380,404.5C 380.708,403.619 381.542,402.953 382.5,402.5 Z"/></g>
<g><path style="opacity:1" fill="#505050" d="M 354.5,413.5 C 362.764,435.295 377.764,441.795 399.5,433C 409.501,425.831 414.334,415.998 414,403.5C 414.203,427.961 402.037,439.461 377.5,438C 364.46,434.795 356.793,426.629 354.5,413.5 Z"/></g>
</svg>
